0
SECTION
2
HEADER
9
$INSUNITS
70
1
9
$ACADVER
1
AC1014
9
$HANDSEED
5
FFFF
0
ENDSEC
0
SECTION
2
TABLES
0
TABLE
2
VPORT
5
8
100
AcDbSymbolTable
0
ENDTAB
0
TABLE
2
LTYPE
5
5
100
AcDbSymbolTable
0
LTYPE
5
14
100
AcDbSymbolTableRecord
100
AcDbLinetypeTableRecord
2
BYBLOCK
70
0
0
LTYPE
5
15
100
AcDbSymbolTableRecord
100
AcDbLinetypeTableRecord
2
BYLAYER
70
0
0
ENDTAB
0
TABLE
2
LAYER
5
2
100
AcDbSymbolTable
70
2
0
LAYER
5
50
100
AcDbSymbolTableRecord
100
AcDbLayerTableRecord
2
0
70
0
6
CONTINUOUS
0
ENDTAB
0
TABLE
2
STYLE
5
3
100
AcDbSymbolTable
70
1
0
STYLE
5
11
100
AcDbSymbolTableRecord
100
AcDbTextStyleTableRecord
2
STANDARD
70
0
0
ENDTAB
0
TABLE
2
VIEW
5
6
100
AcDbSymbolTable
70
0
0
ENDTAB
0
TABLE
2
UCS
5
7
100
AcDbSymbolTable
70
0
0
ENDTAB
0
TABLE
2
APPID
5
9
100
AcDbSymbolTable
70
2
0
APPID
5
12
100
AcDbSymbolTableRecord
100
AcDbRegAppTableRecord
2
ACAD
70
0
0
ENDTAB
0
TABLE
2
DIMSTYLE
5
A
100
AcDbSymbolTable
70
1
0
ENDTAB
0
TABLE
2
BLOCK_RECORD
5
1
100
AcDbSymbolTable
70
1
0
BLOCK_RECORD
5
1F
100
AcDbSymbolTableRecord
100
AcDbBlockTableRecord
2
*MODEL_SPACE
0
BLOCK_RECORD
5
1B
100
AcDbSymbolTableRecord
100
AcDbBlockTableRecord
2
*PAPER_SPACE
0
ENDTAB
0
ENDSEC
0
SECTION
2
BLOCKS
0
BLOCK
5
20
100
AcDbEntity
100
AcDbBlockBegin
2
*MODEL_SPACE
0
ENDBLK
5
21
100
AcDbEntity
100
AcDbBlockEnd
0
BLOCK
5
1C
100
AcDbEntity
100
AcDbBlockBegin
2
*PAPER_SPACE
0
ENDBLK
5
1D
100
AcDbEntity
100
AcDbBlockEnd
0
ENDSEC
0
SECTION
2
ENTITIES
0
LWPOLYLINE
5
100
100
AcDbEntity
8
0
100
AcDbPolyline
90
68
70
1
43
0.0
10
-0.059999999999999658
20
-2.3859999999999997
10
-0.059999999999999679
20
-2.4999999999999996
10
-0.99999999999999989
20
-2.4999999999999996
10
-0.99999999999999989
20
-2.6749999999999994
10
-2.6749999999999998
20
-2.6749999999999994
10
-2.6749999999999998
20
-0.99999999999999867
10
-2.5
20
-0.99999999999999944
10
-2.5000000000000004
20
-0.059999999999999679
10
-2.3860000000000006
20
-0.059999999999999332
10
-2.3860000000000001
20
-0.10999999999999958
10
-2.2760000000000007
20
-0.10999999999999924
10
-2.2760000000000007
20
-0.059999999999999332
10
-2.0900000000000007
20
-0.059999999999998985
10
-2.0899999999999999
20
0.060000000000000733
10
-2.2759999999999998
20
0.06000000000000108
10
-2.2759999999999998
20
0.11000000000000099
10
-2.3859999999999992
20
0.11000000000000133
10
-2.3859999999999997
20
0.06000000000000108
10
-2.4999999999999996
20
0.060000000000001427
10
-2.4999999999999991
20
1.0000000000000004
10
-2.6749999999999989
20
1.0000000000000002
10
-2.6749999999999998
20
2.6749999999999994
10
-0.99999999999999889
20
2.6749999999999994
10
-0.99999999999999956
20
2.4999999999999996
10
-0.059999999999999679
20
2.5000000000000009
10
-0.059999999999999679
20
2.386000000000001
10
-0.10999999999999958
20
2.3860000000000006
10
-0.10999999999999958
20
2.2760000000000007
10
-0.059999999999999679
20
2.2760000000000007
10
-0.060000000000000032
20
2.0900000000000012
10
0.060000000000000032
20
2.0900000000000012
10
0.059999999999999679
20
2.2760000000000007
10
0.10999999999999958
20
2.2760000000000007
10
0.10999999999999958
20
2.3860000000000006
10
0.059999999999999679
20
2.386000000000001
10
0.059999999999999679
20
2.5000000000000009
10
0.99999999999999989
20
2.4999999999999996
10
0.99999999999999989
20
2.6749999999999994
10
2.6749999999999998
20
2.6749999999999994
10
2.6749999999999998
20
0.99999999999999989
10
2.5
20
1.0000000000000007
10
2.5000000000000004
20
0.060000000000000928
10
2.3860000000000006
20
0.060000000000000886
10
2.3860000000000001
20
0.11000000000000083
10
2.2760000000000007
20
0.11000000000000064
10
2.2760000000000007
20
0.060000000000000664
10
2.0900000000000007
20
0.060000000000000511
10
2.0900000000000007
20
-0.059999999999999463
10
2.2760000000000007
20
-0.059999999999999616
10
2.2760000000000007
20
-0.10999999999999958
10
2.3860000000000001
20
-0.10999999999999979
10
2.3860000000000006
20
-0.059999999999999831
10
2.5000000000000004
20
-0.059999999999999859
10
2.5000000000000009
20
-0.99999999999999944
10
2.6750000000000007
20
-0.99999999999999956
10
2.6749999999999998
20
-2.6749999999999994
10
0.99999999999999922
20
-2.6749999999999994
10
0.99999999999999989
20
-2.4999999999999996
10
0.059999999999999706
20
-2.4999999999999996
10
0.059999999999999679
20
-2.3859999999999997
10
0.10999999999999968
20
-2.3859999999999992
10
0.10999999999999964
20
-2.2759999999999994
10
0.059999999999999637
20
-2.2759999999999994
10
0.060000000000000032
20
-2.0899999999999999
10
-0.059999999999999963
20
-2.0899999999999999
10
-0.059999999999999616
20
-2.2759999999999994
10
-0.10999999999999958
20
-2.2759999999999994
10
-0.10999999999999968
20
-2.3859999999999992
0
ENDSEC
0
SECTION
2
OBJECTS
0
DICTIONARY
5
C
100
AcDbDictionary
3
ACAD_GROUP
350
D
3
ACAD_MLINESTYLE
350
17
0
DICTIONARY
5
D
100
AcDbDictionary
0
DICTIONARY
5
1A
330
C
100
AcDbDictionary
0
DICTIONARY
5
17
100
AcDbDictionary
0
ENDSEC
0
EOF
