0
SECTION
2
HEADER
9
$INSUNITS
70
1
9
$ACADVER
1
AC1014
9
$HANDSEED
5
FFFF
0
ENDSEC
0
SECTION
2
TABLES
0
TABLE
2
VPORT
5
8
100
AcDbSymbolTable
0
ENDTAB
0
TABLE
2
LTYPE
5
5
100
AcDbSymbolTable
0
LTYPE
5
14
100
AcDbSymbolTableRecord
100
AcDbLinetypeTableRecord
2
BYBLOCK
70
0
0
LTYPE
5
15
100
AcDbSymbolTableRecord
100
AcDbLinetypeTableRecord
2
BYLAYER
70
0
0
ENDTAB
0
TABLE
2
LAYER
5
2
100
AcDbSymbolTable
70
2
0
LAYER
5
50
100
AcDbSymbolTableRecord
100
AcDbLayerTableRecord
2
0
70
0
6
CONTINUOUS
0
ENDTAB
0
TABLE
2
STYLE
5
3
100
AcDbSymbolTable
70
1
0
STYLE
5
11
100
AcDbSymbolTableRecord
100
AcDbTextStyleTableRecord
2
STANDARD
70
0
0
ENDTAB
0
TABLE
2
VIEW
5
6
100
AcDbSymbolTable
70
0
0
ENDTAB
0
TABLE
2
UCS
5
7
100
AcDbSymbolTable
70
0
0
ENDTAB
0
TABLE
2
APPID
5
9
100
AcDbSymbolTable
70
2
0
APPID
5
12
100
AcDbSymbolTableRecord
100
AcDbRegAppTableRecord
2
ACAD
70
0
0
ENDTAB
0
TABLE
2
DIMSTYLE
5
A
100
AcDbSymbolTable
70
1
0
ENDTAB
0
TABLE
2
BLOCK_RECORD
5
1
100
AcDbSymbolTable
70
1
0
BLOCK_RECORD
5
1F
100
AcDbSymbolTableRecord
100
AcDbBlockTableRecord
2
*MODEL_SPACE
0
BLOCK_RECORD
5
1B
100
AcDbSymbolTableRecord
100
AcDbBlockTableRecord
2
*PAPER_SPACE
0
ENDTAB
0
ENDSEC
0
SECTION
2
BLOCKS
0
BLOCK
5
20
100
AcDbEntity
100
AcDbBlockBegin
2
*MODEL_SPACE
0
ENDBLK
5
21
100
AcDbEntity
100
AcDbBlockEnd
0
BLOCK
5
1C
100
AcDbEntity
100
AcDbBlockBegin
2
*PAPER_SPACE
0
ENDBLK
5
1D
100
AcDbEntity
100
AcDbBlockEnd
0
ENDSEC
0
SECTION
2
ENTITIES
0
LWPOLYLINE
5
100
100
AcDbEntity
8
0
100
AcDbPolyline
90
56
70
1
43
0.0
10
-2.4999999999999996
20
1.1024999999999998
10
-2.3859999999999997
20
1.1024999999999998
10
-2.3859999999999992
20
1.0524999999999998
10
-2.2759999999999994
20
1.0524999999999998
10
-2.2759999999999994
20
1.1024999999999998
10
-2.0899999999999994
20
1.1024999999999998
10
-2.0899999999999994
20
1.2224999999999997
10
-2.2759999999999994
20
1.2224999999999999
10
-2.2759999999999994
20
1.2725
10
-2.3859999999999992
20
1.2725
10
-2.3859999999999997
20
1.2224999999999999
10
-2.4999999999999996
20
1.2224999999999999
10
-2.4999999999999996
20
1.7874999999999996
10
-2.6749999999999994
20
1.7874999999999996
10
-2.6749999999999994
20
2.3249999999999993
10
-1.0000000000000002
20
2.3249999999999993
10
-1.0000000000000002
20
2.149999999999999
10
-0.060000000000000372
20
2.149999999999999
10
-0.060000000000000372
20
2.0359999999999991
10
-0.11000000000000038
20
2.0359999999999996
10
-0.11000000000000036
20
1.9259999999999997
10
-0.060000000000000345
20
1.9259999999999997
10
-0.060000000000000338
20
1.7399999999999998
10
0.059999999999999637
20
1.7399999999999998
10
0.059999999999999651
20
1.9259999999999997
10
0.10999999999999965
20
1.9259999999999997
10
0.10999999999999968
20
2.0359999999999996
10
0.059999999999999672
20
2.0359999999999991
10
0.059999999999999679
20
2.149999999999999
10
0.99999999999999956
20
2.149999999999999
10
0.99999999999999956
20
2.3249999999999993
10
2.6749999999999989
20
2.3249999999999993
10
2.6749999999999989
20
1.7875000000000003
10
2.4999999999999991
20
1.7875000000000003
10
2.4999999999999991
20
1.2224999999999999
10
2.3859999999999992
20
1.2224999999999999
10
2.3859999999999988
20
1.2725
10
2.2759999999999989
20
1.2725
10
2.2759999999999989
20
1.2224999999999999
10
2.089999999999999
20
1.2224999999999997
10
2.089999999999999
20
1.1024999999999998
10
2.2759999999999989
20
1.1024999999999998
10
2.2759999999999989
20
1.0524999999999998
10
2.3859999999999988
20
1.0524999999999998
10
2.3859999999999992
20
1.1024999999999998
10
2.4999999999999991
20
1.1024999999999998
10
2.4999999999999996
20
0.53750000000000053
10
2.6749999999999998
20
0.53750000000000053
10
2.6749999999999989
20
0.17499999999999996
10
0.99999999999999922
20
0.17499999999999996
10
0.99999999999999956
20
0
10
-1.0000000000000002
20
0
10
-0.99999999999999989
20
0.17499999999999996
10
-2.6749999999999994
20
0.17499999999999985
10
-2.6749999999999994
20
0.53749999999999976
10
-2.4999999999999996
20
0.53749999999999976
0
CIRCLE
5
101
100
AcDbEntity
8
0
100
AcDbCircle
10
-1.7483827159451283e-16
20
0.087499999999999981
30
0
40
0.059999999999999984
0
ENDSEC
0
SECTION
2
OBJECTS
0
DICTIONARY
5
C
100
AcDbDictionary
3
ACAD_GROUP
350
D
3
ACAD_MLINESTYLE
350
17
0
DICTIONARY
5
D
100
AcDbDictionary
0
DICTIONARY
5
1A
330
C
100
AcDbDictionary
0
DICTIONARY
5
17
100
AcDbDictionary
0
ENDSEC
0
EOF
